<?xml version="1.0" encoding="utf-8"?>
<!-- Generator: Adobe Illustrator 23.0.2, SVG Export Plug-In . SVG Version: 6.00 Build 0)  -->
<svg version="1.1" id="Layer_1" xmlns="http://www.w3.org/2000/svg" xmlns:xlink="http://www.w3.org/1999/xlink" x="0px" y="0px"
	 viewBox="0 0 500 500" style="enable-background:new 0 0 500 500;" xml:space="preserve">
<style type="text/css">
	.st0{fill:#FFFFFF;}
</style>
<title>Team_Logos</title>
<g id="SF">
	<g>
		<path class="st0" d="M420,82H79.6c-12.3,0-22.1,9.3-22.1,21.6V276h133.9c0.8,0,1.5-0.2,2.1-0.7c1.8-1.2,2.9-3.3,2.8-5.6
			c0.1-2.1-0.9-4.1-2.6-5.4l0,0l-78.7-23.2c-17.5-4.6-27.5-15.7-31.4-32.8c-3.3-14.5-3.1-29.5,0.8-43.9
			c4.8-17.7,18.3-28.7,35.7-29.3l322.4,0.1v-31.6C442.5,91.3,432.4,82,420,82z"/>
		<path class="st0" d="M323.5,209.4h85.4v46.2h-85.4v67.2h-60.2V181.3h-117c-2.9,0-5.2,2.8-5.2,6.3c-0.1,2.2,1,4.2,2.7,5.5
			c2.2,1.8,5.3,2.7,8.1,3.5c22.3,6.1,44.7,12,67,18.2c26.5,7.4,38.4,17.2,39.1,46.2c0.3,11.2-0.2,22.8-2.5,33.8
			c-3.4,16.9-16.7,28.1-36.4,28.1c0,0-105.6,0-161.6,0v75c0,0,0,13.8,9.8,16.9v-18.9l2.8-12.4l2.8,12.4V417c1.8,0.6,3.7,1,5.7,1h4.1
			v-20.9l3.5-21.7l3.5,21.7V418h11.2v-25.4l2.8-19.5l2.8,19.5V418h9.8v-30.9l3.5-18.3l3.5,18.3V418h9.8v-36.1l3.5-18l3.5,18V418h9.8
			v-57l2.8-21.7l2.8,21.7v57h11.2v-57l3.5-21.7l3.5,21.7v57h9.8v-36.1l2.8-18l2.8,18V418h9.8v-30.9l3.5-18.3l3.5,18.3V418h9.8v-25.4
			l3.5-19.5l3.5,19.5V418h9.8v-20.9l3.5-21.7l3.5,21.7V418h9.8v-22.2l3.5-12.4l3.5,12.4V418h8.4v-19.1l3.5-10.1l3.5,10.1V418h8.4
			v-16.9l3.5-8.4l3.5,8.4V418h9.8v-16l2.8-14.7l2.8,14.7v16h11.2v-19l3.5-13.2l3.5,13.2v19h9.8v-22.7l2.8-12.4l2.8,12.4V418h9.8
			v-26.3l3.5-12.2l3.5,12.2V418h9.8v-40.4l3.5-14.7l3.5,14.7V418h9.8v-40.4l3.5-14.7l3.5,14.7V418h9.8v-26.3l3.5-12.2l3.5,12.2V418
			h9.8v-22.7l2.8-12.4l2.8,12.4V418h1.6c2.8,0,5.6-0.6,8.1-1.6V399l3.5-13.2l3.5,13.2v13.4c4.5-4.1,7-9.9,7-16V181.3h-119V209.4z"/>
	</g>
</g>
</svg>
