<?xml version="1.0" encoding="utf-8"?>
<!-- Generator: Adobe Illustrator 23.0.2, SVG Export Plug-In . SVG Version: 6.00 Build 0)  -->
<svg version="1.1" id="atlanta" xmlns="http://www.w3.org/2000/svg" xmlns:xlink="http://www.w3.org/1999/xlink" x="0px" y="0px"
	 viewBox="0 0 500 500" style="enable-background:new 0 0 500 500;" xml:space="preserve">
<style type="text/css">
	.st0{fill:#09226B;}
	.st1{fill:#2FB228;}
	.st2{fill:#FFFFFF;}
</style>
<title>Team_Logos_Vancouver</title>
<g>
	<g>
		<g>
			<path class="st0" d="M382.1,269.3c11.2,5.1,31.4,7.2,31.4,7.2s-15.2-15.9-14.4-25.6s-2.2-22.7-2.2-22.7l22,8.3
				c0,0-24.2-24.6-30.7-45.9s-17.3-53.4-42.6-69.7c-14.8-27.4-35-54.2-35-54.2l-26.9-19.1l-8.5,12.6L250,28.8l-25.3,31.4l-8.5-12.6
				l-26.9,19.1c0,0-20.2,26.7-35,54.2c-25.3,16.2-36.1,48.4-42.6,69.7S81,236.4,81,236.4l22-8.3c0,0-2.9,13-2.2,22.7
				s-14.4,25.6-14.4,25.6s20.2-2.2,31.4-7.2c-4,6.5-22,20.9-48,15.5c6.9,9.4,31.8,14.1,45.1,8.7c-9,11.2,0,44.8,0,49.8
				s0.4,15.5-13,26c20.9,10.8,44.8-9,44.8-9s5.4,19.1,5.4,24.2s-2.9,6.1,0,22.4c2,10.2,6.2,19.8,12.3,28.2l19.5,9
				c0,0-2.2-18.8,3.2-23.1c4,11.2,14.1,24.6,14.1,24.6s18.8,14.1,31.8,21.7c-6.5-7.9-11-30-11-30l28,30l28-30c0,0-4.5,22-11,30
				c13-7.6,31.8-21.7,31.8-21.7s10.1-13.4,14.1-24.6c5.4,4.3,3.2,23.1,3.2,23.1l19.5-9c6.1-8.4,10.3-18,12.3-28.2
				c2.9-16.2,0-17.3,0-22.4s5.4-24.2,5.4-24.2s23.8,19.9,44.8,9c-13.4-10.5-13-20.9-13-26s9-38.6,0-49.8c13.4,5.4,38.3,0.7,45.1-8.7
				C404.2,290.1,386.1,275.8,382.1,269.3z"/>
			<path class="st1" d="M429.2,279.9c-1.6,0.3-3.2,0.6-4.8,0.8l-7.3-7.6c-5.7-5.9-13.5-16.6-13-21.7c0.4-5-0.1-10.7-0.7-15.3
				l13.8,5.2l21.3,8l-15.9-16.2c-0.2-0.2-23.4-24-29.5-43.9c-5.3-17.4-16.3-53.4-43.6-71.7c-14.7-27-34-52.6-34.8-53.7l-0.5-0.6
				l-0.6-0.4l-26.9-19.1l-4.2-3l-2.9,4.2l-4.7,7l-21-26.1l-3.9-4.8l-3.9,4.8l-21,26.1l-4.7-7l-2.9-4.2l-4.2,3l-26.9,19.1l-0.6,0.4
				l-0.5,0.6c-0.8,1.1-20.1,26.6-34.8,53.7c-27.3,18.2-38.3,54.3-43.6,71.7c-6.1,19.9-29.2,43.6-29.5,43.9l-15.9,16.2l21.2-8
				l13.8-5.2c-0.6,4.6-1.1,10.3-0.8,15.3c0.4,5.1-7.6,16-13,21.8l-7.2,7.6c-1.6-0.2-3.2-0.4-4.7-0.8l-12.8-2.6l7.7,10.5
				c6.6,8.9,22.9,13,35.4,13c1.9,0,3.8-0.1,5.6-0.3c-2,10.3,0,24,2.2,36.7c0.4,2.5,0.9,5.3,0.9,6.1l0,0.4c0,4.8,0,12.9-11.1,21.6
				l-6.1,4.8l6.9,3.6c4.9,2.5,10.2,3.8,15.9,3.8c11.4,0,21.9-5.1,28.2-9.1c1.7,6.7,3.4,13.8,3.4,16c0,1-0.2,1.7-0.4,2.9
				c-0.7,3.3-1.7,7.9,0.5,20.4l0,0l0,0c2.1,10.8,6.7,21.3,13.2,30.2l0.8,1.1l1.2,0.5l19.5,9l8.1,3.7l-1-8.9
				c-0.3-2.7-0.4-5.6-0.4-8.2c4.2,7.2,8.5,13,8.8,13.3l0.4,0.6l0.6,0.4c0.8,0.6,19.2,14.4,32.3,22l18,10.5l1.5,0.9l1.6-1l17.9-10.5
				c13.1-7.7,31.5-21.4,32.3-22l0.6-0.4l0.4-0.6c0.3-0.4,4.6-6.1,8.8-13.3c0,2.6-0.1,5.5-0.4,8.2l-1,8.8l8.1-3.7l19.5-9l1.2-0.5
				l0.8-1c6.5-8.9,11.1-19.4,13.2-30.2l0,0l0,0c2.2-12.4,1.2-17,0.5-20.4c-0.3-1.2-0.4-1.9-0.4-2.9c0-2.2,1.6-9.3,3.4-16
				c6.3,3.9,16.7,9.1,28.2,9.1c5.7,0,11.1-1.3,16-3.8l6.9-3.6l-6.1-4.8c-11.1-8.7-11.1-16.8-11.1-21.6l0-0.4c0-0.8,0.5-3.6,1-6.2
				c2.2-12.7,4.2-26.3,2.2-36.6c1.8,0.2,3.7,0.3,5.6,0.3c12.5,0,28.8-4.1,35.3-13.1l7.6-10.4L429.2,279.9z M398.9,295.7
				c-5.1,0-9.9-0.7-13.8-2.3c9,11.2,0,44.7,0,49.8c0,5.1-0.4,15.5,13,26c-4.5,2.3-9.2,3.3-13.7,3.3c-16.5,0-31.1-12.3-31.1-12.3
				s-5.4,19.1-5.4,24.2c0,5.1,2.9,6.2,0,22.4c-2,10.2-6.2,19.8-12.3,28.2l-19.5,9c0,0,2.2-18.8-3.2-23.1
				c-4,11.2-14.1,24.6-14.1,24.6S280,459.7,267,467.3c6.5-8,11-30,11-30l-28,30l-28-30c0,0,4.5,22.1,11,30
				c-13-7.6-31.8-21.7-31.8-21.7s-10.1-13.4-14.1-24.6c-5.4,4.3-3.2,23.1-3.2,23.1l-19.5-9c-6.1-8.4-10.3-18-12.3-28.2
				c-2.9-16.3,0-17.3,0-22.4c0-5.1-5.4-24.2-5.4-24.2s-14.8,12.2-31.2,12.2c-4.5,0-9.1-0.9-13.6-3.2c13.4-10.5,13-21,13-26
				s-9-38.6,0-49.8c-3.9,1.6-8.7,2.3-13.8,2.3c-12.5,0-26.4-4.3-31.3-11c4,0.8,7.8,1.2,11.3,1.2c19.8,0,33.3-11.2,36.7-16.7
				c-11.2,5-31.4,7.2-31.4,7.2s15.1-15.9,14.4-25.6s2.2-22.7,2.2-22.7l-22,8.3c0,0,24.2-24.6,30.7-45.9s17.3-53.5,42.6-69.7
				c14.8-27.5,35-54.2,35-54.2l26.9-19.1l8.5,12.6L250,28.8l25.2,31.4l8.5-12.6l26.9,19.1c0,0,20.2,26.8,35,54.2
				c25.3,16.3,36.1,48.4,42.6,69.7s30.7,45.9,30.7,45.9l-22-8.3c0,0,3,13,2.2,22.7c-0.8,9.7,14.4,25.6,14.4,25.6s-20.2-2.1-31.4-7.2
				c3.4,5.5,16.9,16.7,36.8,16.7c3.6,0,7.4-0.4,11.3-1.2C425.4,291.4,411.4,295.7,398.9,295.7z"/>
		</g>
		<path class="st1" d="M378.9,209.6c-9.4-24.2-32.9-44.4-32.9-44.4l-21.7-26.4l-42.2,18.4l32.5-30.7l-27.8-43.3L273.1,106L250,66.7
			l-23.1,39.4l-13.7-22.7l-27.8,43.3l32.5,30.7L175.7,139L154,165.4c0,0-23.5,20.2-32.9,44.4c10.5-6.1,13.4-8.3,13.4-8.3l-9.4,56.7
			l44-44.8l15.5-33.2l50.9,22.7h28.9l50.9-22.7l15.5,33.2l44,44.8l-9.4-56.7C365.5,201.4,368.4,203.6,378.9,209.6z"/>
		<path class="st1" d="M361.9,278.3c-4.3-7.6-20.2-20.2-20.2-20.2l-28.9-15.2l-27.1,8.3l18.8-22.4l-40.8-16.2L250,223.1l-13.7-10.5
			l-40.8,16.2l18.8,22.4l-27.1-8.3L158.3,258c0,0-15.9,12.6-20.2,20.2c6.6-3.8,13.8-6.2,21.3-7.2c0,0-19.1,39-19.9,65.7
			c29.2-36.5,64.6-73.7,64.6-73.7l45.9,11.6l45.9-11.6c0,0,35.4,37.2,64.6,73.7c-0.7-26.7-19.9-65.7-19.9-65.7
			C348.1,272,355.3,274.5,361.9,278.3z M259.4,250.9h-18.8l-15.9-18.1h12.6l12.6,8.7l12.6-8.7h12.6L259.4,250.9z"/>
		<polygon class="st2" points="283.9,274.6 250,284.4 216,274.6 194,289 194,323.4 210.3,299 208.5,287.3 222,301.8 230.1,295.3 
			240.2,305.4 250,297 259.7,305.4 269.8,295.3 278,301.8 291.5,287.3 289.7,299 306,323.4 306,289 		"/>
		<path class="st2" d="M275.3,369.5c-10.5,6.1-25.3,5.3-25.3,5.3s-14.8,0.9-25.3-5.3S205.9,353,205.9,353v18.8l5.1,9.4l4.3-4.3
			l34.7,16.6l34.7-16.6l4.3,4.3l5.1-9.4V353C294,353,285.7,363.5,275.3,369.5z"/>
		<path class="st1" d="M317.1,360.3c-6.5,14.8-25.6,27.4-25.6,27.4L250,400.3l-41.5-12.6c0,0-19.1-12.6-25.6-27.4
			c-0.7,8.7,0,23.1,0,23.1s20.9,20.6,46.9,22c-9,3.2-28.9,0-28.9,0s20.6,21.3,49.1,22c28.5-0.7,49.1-22,49.1-22s-19.9,3.2-28.9,0
			c26-1.4,46.9-22,46.9-22S317.9,368.9,317.1,360.3z"/>
	</g>
	<path class="st2" d="M216.9,206.3l-27.1-11.9l-3.2,13.7C186.6,208.1,209.4,211,216.9,206.3z"/>
	<path class="st2" d="M283.1,206.3l27.1-11.9l3.2,13.7C313.4,208.1,290.5,211,283.1,206.3z"/>
</g>
</svg>
